<svg width="20" height="20" viewBox="0 0 20 20" fill="none" xmlns="http://www.w3.org/2000/svg">
<path d="M19.6875 16.5H1.25V3.0625C1.25 2.97135 1.21745 2.89974 1.15234 2.84766C1.10026 2.78255 1.02865 2.75 0.9375 2.75H0.3125C0.221354 2.75 0.143229 2.78255 0.078125 2.84766C0.0260417 2.89974 0 2.97135 0 3.0625V17.125C0 17.2943 0.0585938 17.444 0.175781 17.5742C0.30599 17.6914 0.455729 17.75 0.625 17.75H19.6875C19.7786 17.75 19.8503 17.724 19.9023 17.6719C19.9674 17.6068 20 17.5286 20 17.4375V16.8125C20 16.7214 19.9674 16.6497 19.9023 16.5977C19.8503 16.5326 19.7786 16.5 19.6875 16.5ZM3.84766 10.5234C3.78255 10.5885 3.75 10.6667 3.75 10.7578C3.75 10.8359 3.78255 10.9076 3.84766 10.9727L4.27734 11.4023C4.34245 11.4674 4.41406 11.5 4.49219 11.5C4.58333 11.5 4.66146 11.4674 4.72656 11.4023L7.55859 8.58984L10.8789 11.9102C10.9961 12.0273 11.1393 12.0859 11.3086 12.0859C11.4909 12.0859 11.6406 12.0273 11.7578 11.9102L15.4102 8.25781L17.1289 9.97656C17.2331 10.0677 17.3372 10.1393 17.4414 10.1914C17.5586 10.2305 17.6758 10.25 17.793 10.25C18.0404 10.25 18.2617 10.1654 18.457 9.99609C18.6523 9.8138 18.75 9.57943 18.75 9.29297V4.625C18.75 4.45573 18.6849 4.3125 18.5547 4.19531C18.4375 4.0651 18.2943 4 18.125 4H13.457C13.0273 4 12.7279 4.19531 12.5586 4.58594C12.4023 4.97656 12.474 5.32161 12.7734 5.62109L14.5312 7.35938L11.3086 10.582L8.00781 7.28125C7.89062 7.15104 7.74089 7.08594 7.55859 7.08594C7.38932 7.08594 7.24609 7.14453 7.12891 7.26172L3.84766 10.5234ZM14.1797 5.25H17.5V8.57031L14.1797 5.25Z" fill="black"/>
</svg>
