<svg width="20" height="20" viewBox="0 0 20 20" fill="none" xmlns="http://www.w3.org/2000/svg">
<path d="M0.78125 1.1875H1.17188C1.30208 1.1875 1.41276 1.23307 1.50391 1.32422C1.59505 1.41536 1.64062 1.52604 1.64062 1.65625V5.34766C2.05729 4.63151 2.5651 3.98047 3.16406 3.39453C3.75 2.79557 4.40104 2.28776 5.11719 1.87109C5.84635 1.45443 6.62109 1.12891 7.44141 0.894531C8.27474 0.673177 9.14062 0.5625 10.0391 0.5625C11.3672 0.5625 12.6172 0.822917 13.7891 1.34375C14.9609 1.85156 15.9831 2.54818 16.8555 3.43359C17.7279 4.30599 18.418 5.32812 18.9258 6.5C19.4336 7.6849 19.6875 8.94141 19.6875 10.2695C19.6875 11.5977 19.4336 12.8542 18.9258 14.0391C18.418 15.2109 17.7214 16.2331 16.8359 17.1055C15.9635 17.9779 14.9414 18.668 13.7695 19.1758C12.5977 19.6836 11.3411 19.9375 10 19.9375C9.375 19.9375 8.76953 19.8789 8.18359 19.7617C7.58464 19.6445 7.01172 19.4753 6.46484 19.2539C5.91797 19.0456 5.39714 18.7917 4.90234 18.4922C4.40755 18.1797 3.94531 17.8281 3.51562 17.4375C3.41146 17.3464 3.35286 17.2357 3.33984 17.1055C3.33984 16.9753 3.39193 16.8581 3.49609 16.7539L3.76953 16.4805C3.86068 16.3893 3.96484 16.3438 4.08203 16.3438C4.21224 16.3438 4.32292 16.3828 4.41406 16.4609C5.15625 17.125 6.0026 17.6523 6.95312 18.043C7.90365 18.4206 8.91927 18.6094 10 18.6094C11.1458 18.6094 12.2266 18.3945 13.2422 17.9648C14.2578 17.5221 15.1432 16.9232 15.8984 16.168C16.6536 15.4128 17.2526 14.5273 17.6953 13.5117C18.138 12.4961 18.3594 11.4089 18.3594 10.25C18.3594 9.10417 18.1445 8.02344 17.7148 7.00781C17.2721 5.99219 16.6732 5.10677 15.918 4.35156C15.1628 3.59635 14.2773 2.9974 13.2617 2.55469C12.2461 2.11198 11.1589 1.89062 10 1.89062C9.19271 1.89062 8.41797 2.0013 7.67578 2.22266C6.92057 2.44401 6.22396 2.75651 5.58594 3.16016C4.94792 3.55078 4.375 4.02604 3.86719 4.58594C3.34635 5.13281 2.91016 5.74479 2.55859 6.42188H6.40625C6.53646 6.42188 6.64714 6.46745 6.73828 6.55859C6.82943 6.64974 6.875 6.76042 6.875 6.89062V7.28125C6.875 7.41146 6.82943 7.52214 6.73828 7.61328C6.64714 7.70443 6.53646 7.75 6.40625 7.75H0.78125C0.651042 7.75 0.540365 7.70443 0.449219 7.61328C0.358073 7.52214 0.3125 7.41146 0.3125 7.28125V1.65625C0.3125 1.52604 0.358073 1.41536 0.449219 1.32422C0.540365 1.23307 0.651042 1.1875 0.78125 1.1875ZM13.3398 13.4922L13.5352 13.2578C13.6133 13.1406 13.6393 13.0234 13.6133 12.9062C13.5872 12.776 13.5221 12.6719 13.418 12.5938L10.625 10.5625V4.78125C10.625 4.65104 10.5794 4.54036 10.4883 4.44922C10.3971 4.35807 10.2865 4.3125 10.1562 4.3125H9.84375C9.71354 4.3125 9.60286 4.35807 9.51172 4.44922C9.42057 4.54036 9.375 4.65104 9.375 4.78125V11.1875L12.6953 13.6094C12.7995 13.6875 12.9102 13.7201 13.0273 13.707C13.1576 13.681 13.2617 13.6094 13.3398 13.4922Z" fill="black"/>
</svg>
