<svg width="21" height="20" viewBox="0 0 21 20" fill="none" xmlns="http://www.w3.org/2000/svg">
<path d="M20.3828 9.19531L18 7.26172V4.23438C18 4.16927 17.974 4.11719 17.9219 4.07812C17.8828 4.02604 17.8307 4 17.7656 4H16.9844C16.9193 4 16.8607 4.02604 16.8086 4.07812C16.7695 4.11719 16.75 4.16927 16.75 4.23438V6.24609L11.2812 1.77344C11.1771 1.69531 11.0599 1.63021 10.9297 1.57812C10.7995 1.52604 10.6562 1.5 10.5 1.5C10.3438 1.5 10.2005 1.52604 10.0703 1.57812C9.9401 1.63021 9.82292 1.69531 9.71875 1.77344L0.617188 9.19531C0.578125 9.23438 0.545573 9.27344 0.519531 9.3125C0.50651 9.35156 0.5 9.39714 0.5 9.44922C0.5 9.48828 0.50651 9.52734 0.519531 9.56641C0.532552 9.59245 0.552083 9.61849 0.578125 9.64453L0.96875 10.1328C0.994792 10.1589 1.02734 10.1849 1.06641 10.2109C1.11849 10.237 1.16406 10.25 1.20312 10.25C1.24219 10.25 1.27474 10.2435 1.30078 10.2305C1.33984 10.2174 1.3724 10.1979 1.39844 10.1719L3 8.86328V18.3555C3 18.5247 3.05859 18.6745 3.17578 18.8047C3.30599 18.9219 3.45573 18.9805 3.625 18.9805H8.625C8.79427 18.9805 8.9375 18.9219 9.05469 18.8047C9.1849 18.6745 9.25 18.5247 9.25 18.3555V13.3555L11.75 13.375V18.375C11.75 18.5443 11.8086 18.694 11.9258 18.8242C12.056 18.9414 12.2057 19 12.375 19L17.375 18.9805C17.5443 18.9805 17.6875 18.9219 17.8047 18.8047C17.9349 18.6875 18 18.5378 18 18.3555V8.86328L19.6016 10.1719C19.6276 10.1979 19.6536 10.2174 19.6797 10.2305C19.7188 10.2435 19.7578 10.25 19.7969 10.25C19.849 10.25 19.8945 10.237 19.9336 10.2109C19.9727 10.1849 20.0052 10.1589 20.0312 10.1328L20.4219 9.64453C20.4479 9.61849 20.4674 9.59245 20.4805 9.56641C20.4935 9.52734 20.5 9.48828 20.5 9.44922C20.5 9.39714 20.487 9.35156 20.4609 9.3125C20.4479 9.27344 20.4219 9.23438 20.3828 9.19531ZM16.75 17.7305L13 17.75V12.75C13 12.5807 12.9349 12.4375 12.8047 12.3203C12.6875 12.1901 12.5443 12.125 12.375 12.125L8.625 12.1055C8.45573 12.1055 8.30599 12.1706 8.17578 12.3008C8.05859 12.418 8 12.5612 8 12.7305V17.7305H4.25V7.84766L10.5 2.75L16.75 7.84766V17.7305Z" fill="black"/>
</svg>
